<?xml version="1.0" standalone="no"?>
<!DOCTYPE svg PUBLIC "-//W3C//DTD SVG 20010904//EN"
 "http://www.w3.org/TR/2001/REC-SVG-20010904/DTD/svg10.dtd">
<svg version="1.0" xmlns="http://www.w3.org/2000/svg"
 width="685.000000pt" height="685.000000pt" viewBox="0 0 685.000000 685.000000"
 preserveAspectRatio="xMidYMid meet">
<metadata>
Created by potrace 1.14, written by Peter Selinger 2001-2017
</metadata>
<g transform="translate(0.000000,685.000000) scale(0.100000,-0.100000)"
fill="#000000" stroke="none">
<path d="M3019 6757 c-1 -6 -3 -21 -4 -32 -20 -164 -25 -261 -26 -475 -1 -173
4 -297 16 -410 2 -19 6 -64 9 -100 3 -35 8 -71 10 -80 3 -8 7 -35 10 -60 3
-25 8 -56 11 -70 3 -14 7 -38 10 -55 10 -68 17 -102 27 -140 6 -22 11 -49 13
-60 4 -31 40 -170 68 -265 128 -432 304 -810 552 -1185 86 -130 145 -206 278
-360 75 -87 299 -310 392 -390 44 -39 82 -72 85 -75 4 -5 48 -40 123 -100 11
-8 24 -20 31 -25 6 -6 27 -22 46 -35 19 -13 40 -29 46 -35 24 -20 362 -245
370 -245 2 0 46 -24 97 -53 107 -62 352 -183 389 -192 22 -6 29 -1 49 32 12
21 25 40 28 43 21 19 223 343 221 355 0 3 6 13 15 21 8 9 15 21 15 29 0 7 3
15 8 17 4 2 32 53 62 113 30 61 58 112 63 113 4 2 7 9 7 16 0 7 11 34 24 62
36 76 63 136 84 190 11 27 46 103 77 169 106 223 226 556 261 725 3 14 12 51
20 83 8 32 12 62 9 67 -3 5 -1 11 5 15 22 14 68 -10 -690 363 -157 77 -319
154 -360 172 -70 30 -337 127 -370 135 -8 2 -60 16 -114 30 -55 15 -109 29
-120 31 -12 2 -32 6 -46 9 -62 13 -100 17 -100 11 0 -8 334 -533 357 -561 5
-5 24 -35 43 -65 19 -30 38 -59 43 -65 5 -5 16 -22 25 -37 22 -34 129 -188
145 -208 6 -9 28 -23 47 -32 34 -16 70 -32 198 -89 54 -24 62 -31 54 -46 -26
-49 -161 -334 -167 -352 -3 -12 -11 -21 -16 -21 -5 0 -9 -6 -9 -14 0 -8 -36
-89 -81 -180 -87 -180 -80 -173 -138 -129 -9 7 -39 29 -67 50 -107 80 -219
180 -383 343 -146 145 -257 276 -341 401 -24 35 -46 66 -49 69 -3 3 -12 17
-20 32 -8 15 -21 36 -30 45 -51 56 -176 288 -236 438 -15 39 -31 79 -36 90
-14 35 -61 169 -64 186 -2 8 -11 33 -20 55 -9 21 -16 41 -17 44 0 3 -2 10 -3
15 -15 55 -37 140 -40 156 -2 12 -7 29 -10 39 -8 25 -47 257 -59 350 -3 25 -8
54 -10 65 -2 11 -7 50 -10 87 -4 37 -9 77 -11 90 -2 13 -7 46 -10 73 -3 28 -8
69 -11 93 -6 40 -3 46 26 44 162 -10 201 -13 221 -17 13 -2 51 -7 84 -11 68
-8 71 -8 140 -19 59 -9 239 -45 345 -70 69 -16 117 -28 130 -32 8 -3 22 -7 31
-9 17 -4 74 -19 219 -59 52 -15 102 -28 110 -30 8 -2 40 -11 70 -20 30 -9 62
-18 70 -20 8 -2 94 -31 190 -64 96 -34 182 -63 190 -65 87 -24 523 -181 617
-222 17 -8 33 -14 36 -14 2 0 22 -8 43 -17 22 -9 44 -18 50 -19 6 -1 27 -9 45
-17 45 -20 267 -107 280 -110 6 -1 13 5 14 13 2 8 5 31 9 50 3 19 11 53 16 75
6 22 13 51 16 65 3 14 7 33 10 42 3 10 7 30 10 45 3 16 10 46 16 68 5 22 12
47 13 55 2 8 15 62 29 120 14 58 22 108 18 112 -8 7 -136 71 -222 111 -120 55
-188 85 -250 112 -36 15 -84 36 -107 46 -24 11 -45 19 -48 19 -3 0 -24 8 -48
19 -23 10 -80 33 -127 51 -47 17 -94 36 -105 40 -66 28 -498 170 -561 185 -10
2 -62 16 -114 30 -52 15 -106 28 -120 31 -14 3 -59 14 -100 24 -41 10 -88 21
-105 24 -16 3 -41 7 -55 11 -60 13 -225 43 -280 50 -19 2 -44 6 -55 8 -11 3
-40 8 -65 11 -25 3 -56 8 -70 10 -14 3 -65 9 -115 15 -49 6 -108 14 -130 17
-22 2 -69 7 -105 10 -36 3 -92 7 -125 10 -33 2 -82 7 -110 9 -27 3 -220 7
-427 10 -294 4 -378 2 -379 -8z"/>
<path d="M2229 6696 c-2 -2 -24 -7 -49 -11 -47 -7 -50 -8 -90 -18 -14 -4 -37
-9 -52 -12 -30 -5 -59 -12 -98 -21 -14 -3 -34 -7 -45 -9 -42 -7 -230 -47 -236
-51 -3 -1 -28 -6 -55 -10 -27 -3 -57 -10 -66 -15 -10 -6 -18 -6 -19 -2 -1 4
-4 -3 -8 -17 -4 -14 -6 -137 -4 -275 5 -308 6 -325 17 -325 4 0 3 -6 -3 -13
-6 -8 -9 -16 -6 -18 2 -3 7 -36 10 -74 9 -107 20 -212 30 -285 3 -19 8 -53 10
-75 3 -22 10 -67 16 -100 6 -33 12 -69 14 -80 1 -11 6 -35 9 -52 3 -18 8 -48
12 -65 3 -18 9 -51 15 -73 5 -22 11 -52 14 -67 2 -15 8 -44 14 -65 6 -21 12
-49 15 -63 3 -14 9 -40 15 -57 5 -18 7 -33 4 -33 -3 0 -1 -6 4 -12 6 -7 14
-31 18 -53 11 -53 8 -42 54 -195 23 -74 46 -143 51 -152 6 -10 10 -23 10 -30
0 -27 156 -429 190 -490 6 -10 10 -25 10 -33 0 -8 5 -15 10 -15 6 0 9 -3 8 -7
-1 -5 3 -17 9 -28 6 -11 11 -22 11 -25 0 -3 7 -23 16 -44 110 -264 312 -640
433 -807 18 -26 33 -52 33 -58 0 -6 4 -11 8 -11 4 0 15 -13 25 -29 16 -28 165
-230 177 -241 3 -3 37 -43 75 -90 39 -46 88 -105 110 -129 58 -65 321 -329
381 -381 28 -25 66 -58 85 -75 26 -23 162 -132 254 -203 6 -4 42 -30 80 -57
39 -27 72 -53 73 -57 2 -5 10 -8 17 -8 7 0 15 -3 17 -8 1 -4 29 -23 61 -42 31
-19 57 -37 57 -41 0 -4 -70 -62 -156 -130 -86 -68 -222 -177 -302 -241 -81
-65 -149 -117 -152 -118 -7 0 -129 99 -167 137 -18 18 -33 30 -33 27 0 -3 -11
5 -24 18 -13 13 -52 48 -86 78 -150 130 -350 326 -495 485 -134 147 -133 146
-184 207 -25 32 -49 58 -53 58 -5 0 -8 6 -8 13 0 8 -9 22 -21 33 -54 49 -429
583 -429 611 0 7 -5 13 -10 13 -6 0 -14 8 -17 18 -4 9 -23 44 -43 77 -20 33
-53 91 -74 128 -64 117 -78 142 -88 155 -6 6 -8 12 -4 12 3 0 -7 21 -22 47
-15 27 -37 68 -49 93 -12 25 -44 92 -71 150 -27 58 -64 139 -81 180 -18 41
-36 84 -41 95 -5 11 -20 47 -33 80 -13 33 -28 69 -32 80 -5 11 -9 22 -9 25 -2
7 -37 101 -46 125 -5 11 -20 56 -35 100 -15 44 -30 87 -33 95 -3 8 -6 18 -7
23 -2 4 -3 8 -5 10 -1 1 -3 9 -5 17 -1 8 -15 52 -30 98 -15 46 -28 91 -30 100
-2 9 -4 17 -5 17 -1 0 -3 7 -5 15 -12 51 -45 172 -49 179 -3 4 -7 18 -9 32 -3
13 -16 71 -30 129 -31 130 -61 269 -82 380 -8 47 -17 96 -20 110 -3 13 -7 40
-10 60 -3 20 -7 45 -9 55 -2 11 -7 43 -10 70 -4 28 -12 79 -17 115 -6 36 -12
88 -15 115 -2 28 -7 64 -10 80 -5 30 -8 62 -19 185 -9 99 -12 126 -20 240 -4
58 -8 106 -9 108 -3 2 -47 -16 -131 -53 -16 -7 -59 -25 -95 -39 -36 -15 -74
-31 -85 -36 -18 -8 -80 -35 -386 -163 l-77 -32 2 -82 c0 -46 3 -83 6 -83 3 0
5 -24 6 -53 1 -47 12 -173 20 -237 2 -14 6 -47 9 -75 3 -27 7 -61 10 -75 3
-14 7 -48 10 -76 3 -28 7 -60 9 -71 3 -12 8 -43 12 -70 3 -26 8 -57 10 -68 2
-11 8 -45 14 -75 13 -72 18 -95 30 -156 6 -28 13 -62 15 -77 3 -15 9 -37 15
-51 5 -13 7 -26 4 -29 -2 -2 0 -15 5 -29 5 -14 12 -38 15 -54 3 -16 12 -58 21
-94 9 -36 18 -69 19 -75 25 -102 103 -355 166 -540 44 -130 149 -406 160 -420
4 -5 13 -28 20 -50 7 -22 16 -44 20 -50 4 -5 30 -62 58 -126 64 -146 168 -347
262 -509 39 -69 81 -140 91 -158 33 -57 53 -87 64 -94 5 -4 7 -8 3 -8 -7 0
210 -332 262 -400 15 -19 58 -78 96 -130 38 -52 75 -101 82 -110 7 -8 27 -34
45 -56 73 -94 236 -292 272 -330 11 -12 49 -54 85 -94 36 -40 82 -91 103 -114
49 -52 297 -304 297 -301 0 1 24 -21 53 -49 92 -88 170 -159 237 -215 36 -30
70 -60 75 -65 6 -6 40 -35 78 -65 37 -30 67 -58 67 -63 0 -4 6 -8 13 -8 6 0
29 -16 50 -35 21 -19 42 -35 47 -35 4 0 10 -4 12 -8 2 -4 32 -30 68 -57 36
-27 67 -53 68 -57 2 -4 8 -8 14 -8 6 0 23 -10 38 -23 15 -12 40 -31 56 -42 15
-11 47 -35 71 -52 24 -18 46 -33 48 -33 3 0 19 -10 35 -22 28 -20 31 -20 48
-5 10 9 22 17 26 17 3 0 40 23 82 50 41 28 79 50 84 50 5 0 10 3 12 8 2 4 30
24 62 46 33 21 64 43 70 47 6 5 54 41 106 80 83 63 234 184 266 214 6 5 45 39
85 75 162 142 505 495 674 694 37 44 72 84 78 91 7 6 26 29 42 50 17 21 35 43
40 49 32 35 87 107 84 110 -2 2 -47 24 -99 50 -190 93 -356 190 -540 315 -122
82 -319 227 -371 273 -15 13 -42 36 -60 51 -193 159 -532 506 -618 630 -8 12
-20 27 -27 32 -20 18 -144 184 -144 194 0 5 -4 11 -8 13 -9 3 -132 175 -132
184 0 3 -18 32 -40 64 -22 32 -40 64 -40 69 0 6 -4 11 -10 11 -5 0 -10 4 -10
10 0 5 -20 44 -45 86 -82 139 -230 444 -240 496 -2 9 -9 26 -15 37 -6 12 -8
21 -4 21 3 0 2 6 -3 13 -11 13 -120 351 -138 427 -1 3 -7 25 -13 50 -7 25 -24
90 -38 145 -14 55 -30 118 -35 139 -12 44 -15 58 -23 111 -4 20 -8 41 -11 45
-3 4 -7 25 -10 46 -4 22 -8 47 -11 56 -5 19 -10 40 -18 89 -3 19 -8 45 -11 59
-2 13 -7 42 -10 65 -3 22 -8 48 -11 58 -3 10 -7 35 -9 55 -2 20 -6 48 -9 62
-2 14 -7 47 -11 73 -4 27 -8 56 -10 65 -1 10 -6 46 -10 82 -3 36 -8 79 -10 95
-3 17 -7 62 -10 100 -3 39 -7 86 -10 105 -8 66 -22 312 -25 458 -2 79 -5 92
-20 92 -9 0 -19 -2 -21 -4z"/>
</g>
</svg>
