<svg width="48" height="48" viewBox="0 0 48 48" fill="none" xmlns="http://www.w3.org/2000/svg">
<g clip-path="url(#clip0_1302_292)">
<path d="M42.3536 43.6927C42.3152 43.6996 42.1359 43.7317 41.8444 43.7839C30.3498 45.8441 28.2353 46.1979 27.998 46.2254C27.4319 46.2911 27.009 46.2578 26.7047 46.1237C26.5146 46.04 26.4116 45.9383 26.3841 45.8936C26.3975 45.8141 26.4986 45.6245 26.5603 45.5087C26.6204 45.396 26.6885 45.2684 26.7481 45.1324C27.1437 44.2297 26.8669 43.3141 26.0257 42.7426C25.3984 42.3165 24.5667 42.1436 23.5529 42.2285C22.9477 42.2792 12.3395 44.0577 6.51247 45.0384L3.65234 47.2877C10.3225 46.1618 23.0298 44.0298 23.6985 43.965C24.2957 43.9149 24.7617 43.9907 25.0464 44.1841C25.2118 44.2964 25.1955 44.3336 25.152 44.4329C25.1193 44.5074 25.0724 44.5954 25.0227 44.6885C24.8318 45.0465 24.5703 45.5366 24.6569 46.1438C24.7518 46.8097 25.2421 47.3836 26.0019 47.7184C26.4291 47.9066 26.9194 47.9999 27.4879 47.9999C27.7123 47.9999 27.949 47.9854 28.1987 47.9564C28.6559 47.9034 33.3504 47.0767 42.1517 45.4991C42.4415 45.4472 42.6199 45.4152 42.658 45.4085C43.1318 45.3244 43.4477 44.8721 43.3636 44.3983C43.2795 43.9245 42.8276 43.6086 42.3536 43.6927Z" fill="black"/>
<path d="M11.5082 35.2257L4.10652 42.9681C3.29133 43.8208 2.71711 44.8747 2.44263 46.022L12.9524 37.757C16.2425 39.216 18.8706 39.6807 20.8848 39.6807C24.4234 39.6807 26.0661 38.2455 26.0661 38.2455C22.7718 36.5313 22.3024 33.332 22.3024 33.332C24.8255 34.3987 30.0812 35.6561 30.0812 35.6561C37.0609 30.9977 40.7086 20.9117 40.7086 20.9117C39.986 21.1104 39.2949 21.1931 38.6437 21.1931C35.3678 21.1931 33.1171 19.0955 33.1171 19.0955L42.2356 17.1097C45.2674 10.8893 45.5573 0 45.5573 0L17.8332 24.6584C14.6935 27.4508 12.4858 31.1392 11.5082 35.2257Z" fill="black"/>
</g>
<defs>
<clipPath id="clip0_1302_292">
<rect width="48" height="48" fill="white"/>
</clipPath>
</defs>
</svg>
