<svg width="34" height="34" viewBox="0 0 34 34" fill="none" xmlns="http://www.w3.org/2000/svg">
    <path fill-rule="evenodd" clip-rule="evenodd" d="M28.6666 0.333334C31.3249 0.333334 33.5058 2.41929 33.6581 5.04002L33.6666 5.33333V22C33.6666 24.6582 31.5807 26.8391 28.96 26.9915L28.6666 27H22.8333L18.3333 33C18.0183 33.42 17.525 33.6667 17 33.6667C16.5406 33.6667 16.1055 33.4778 15.7928 33.1492L15.6666 33L11.1666 27H5.33331C2.6751 27 0.494206 24.914 0.341818 22.2933L0.333313 22V5.33333C0.333313 2.67512 2.41927 0.494227 5.04 0.341839L5.33331 0.333334H28.6666ZM28.6666 3.66667H5.33331C4.48058 3.66667 3.77442 4.31191 3.67789 5.13936L3.66665 5.33333V22C3.66665 22.8527 4.31189 23.5589 5.13934 23.6554L5.33331 23.6667H12C12.4594 23.6667 12.8945 23.8555 13.2071 24.1841L13.3333 24.3333L17 29.2217L20.6666 24.3333C20.9423 23.9658 21.3544 23.731 21.8049 23.6781L22 23.6667H28.6666C29.5194 23.6667 30.2255 23.0214 30.3221 22.194L30.3333 22V5.33333C30.3333 4.4806 29.6881 3.77444 28.8606 3.67791L28.6666 3.66667ZM25.3333 15.3333C26.2533 15.3333 27 16.08 27 17C27 17.8543 26.3562 18.5591 25.5276 18.6554L25.3333 18.6667H8.66665C7.74665 18.6667 6.99998 17.92 6.99998 17C6.99998 16.1457 7.64379 15.4409 8.47237 15.3446L8.66665 15.3333H25.3333ZM25.3333 8.66667C26.2533 8.66667 27 9.41333 27 10.3333C27 11.1876 26.3562 11.8924 25.5276 11.9888L25.3333 12H8.66665C7.74665 12 6.99998 11.2533 6.99998 10.3333C6.99998 9.47905 7.64379 8.77422 8.47237 8.67789L8.66665 8.66667H25.3333Z" fill="white"/>
</svg>
