<svg width="304" height="304" viewBox="0 0 304 304" fill="none" xmlns="http://www.w3.org/2000/svg">
<path d="M293.55 53.2C292.6 49.4 288.8 47.5 285 47.5H256.5V19C256.5 15.2 254.6 11.4 250.8 10.45C247 8.55004 243.2 9.50004 240.35 12.35L202.35 50.35C200.45 52.25 199.5 54.15 199.5 57V91.2001L145.35 145.35C141.55 149.15 141.55 154.85 145.35 158.65C147.25 160.55 150.1 161.5 152 161.5C153.9 161.5 156.75 160.55 158.65 158.65L212.8 104.5H247C249.85 104.5 251.75 103.55 253.65 101.65L291.65 63.65C294.5 60.8 295.45 57 293.55 53.2Z" fill="#2C2D3A"/>
<path d="M171.95 171.95C167.2 177.65 159.6 180.5 152 180.5C144.4 180.5 136.8 177.65 132.05 171.95C120.65 160.55 120.65 142.5 132.05 132.05L158.65 105.45C156.75 104.5 153.9 104.5 152 104.5C125.4 104.5 104.5 125.4 104.5 152C104.5 178.6 125.4 199.5 152 199.5C178.6 199.5 199.5 178.6 199.5 152C199.5 150.1 199.5 147.25 198.55 145.35L171.95 171.95Z" fill="#FBFDBE"/>
<path d="M266.95 114.95C262.2 120.65 254.6 123.5 247 123.5H220.4L213.75 130.15C216.6 136.8 217.55 144.4 217.55 152C217.55 189.05 188.1 218.5 151.05 218.5C114 218.5 84.55 189.05 84.55 152C84.55 114.95 114 85.5 151.05 85.5C158.65 85.5 166.25 87.4 172.9 89.3L180.5 83.6V57C180.5 49.4 183.35 41.8 189.05 37.05L198.55 27.55C183.35 21.85 168.15 19 152 19C78.85 19 19 78.85 19 152C19 225.15 78.85 285 152 285C225.15 285 285 225.15 285 152C285 135.85 282.15 120.65 276.45 105.45L266.95 114.95Z" fill="#ABAE28"/>
</svg>
