<svg width="48" height="48" viewBox="0 0 48 48" fill="none" xmlns="http://www.w3.org/2000/svg">
<path d="M30 30C30 30.5304 29.7893 31.0391 29.4143 31.4142C29.0392 31.7893 28.5305 32 28 32H20C19.4696 32 18.9609 31.7893 18.5858 31.4142C18.2108 31.0391 18 30.5304 18 30C18 29.4696 18.2108 28.9609 18.5858 28.5858C18.9609 28.2107 19.4696 28 20 28H28C28.5305 28 29.0392 28.2107 29.4143 28.5858C29.7893 28.9609 30 29.4696 30 30ZM46 17.708V36C46 36.5304 45.7893 37.0391 45.4143 37.4142C45.0392 37.7893 44.5305 38 44 38H38V44C38 44.5304 37.7893 45.0391 37.4143 45.4142C37.0392 45.7893 36.5305 46 36 46H12C11.4696 46 10.9609 45.7893 10.5858 45.4142C10.2108 45.0391 10 44.5304 10 44V38H4.00004C3.46961 38 2.9609 37.7893 2.58583 37.4142C2.21075 37.0391 2.00004 36.5304 2.00004 36V17.708C1.99528 16.2213 2.407 14.7629 3.18854 13.4982C3.97009 12.2334 5.09022 11.2128 6.42204 10.552L7.83204 9.848L10.816 8.356C12.4329 6.41728 14.446 4.84703 16.72 3.75074C18.994 2.65445 21.4762 2.0575 24 2C26.5246 2.05322 29.0083 2.64827 31.283 3.74487C33.5576 4.84146 35.57 6.414 37.184 8.356L40.168 9.848L41.578 10.552C42.9099 11.2128 44.03 12.2334 44.8115 13.4982C45.5931 14.7629 46.0048 16.2213 46 17.708ZM39.988 14.242C37.096 19.212 38.274 23.048 38 28H42V17.708C42.0022 17.0037 41.8171 16.3116 41.4635 15.7025C41.1099 15.0934 40.6007 14.5893 39.988 14.242ZM14 36H34V21.456C34.0258 18.2942 34.8426 15.1892 36.376 12.424L35.846 12.16L30 14.108V22C30 22.5304 29.7893 23.0391 29.4143 23.4142C29.0392 23.7893 28.5305 24 28 24C27.4696 24 26.9609 23.7893 26.5858 23.4142C26.2108 23.0391 26 22.5304 26 22V15.44C25.3632 15.7204 24.6899 15.909 24 16C23.3105 15.9075 22.6373 15.719 22 15.44V18C22 18.5304 21.7893 19.0391 21.4143 19.4142C21.0392 19.7893 20.5305 20 20 20C19.4696 20 18.9609 19.7893 18.5858 19.4142C18.2108 19.0391 18 18.5304 18 18V14.108L12.154 12.16L11.624 12.424C13.158 15.1889 13.9749 18.2941 14 21.456V36ZM15.726 9.134L24 11.892L32.274 9.134C29.991 7.11447 27.0481 5.99967 24 5.99967C20.9519 5.99967 18.0091 7.11447 15.726 9.134ZM6.00004 17.708V28H10C9.72404 23.012 10.908 19.234 8.01204 14.242C7.39966 14.5897 6.89066 15.0938 6.53713 15.7028C6.18361 16.3118 5.99825 17.0038 6.00004 17.708ZM10 34V32H6.00004V34H10ZM34 42V40H14V42H34ZM42 34V32H38V34H42Z" fill="black"/>
</svg>
