<svg width="304" height="304" viewBox="0 0 304 304" fill="none" xmlns="http://www.w3.org/2000/svg">
<g clip-path="url(#clip0_1124_233)">
<path d="M186.489 37.1525C186.489 43.4188 189.269 49.7754 193.599 53.6646C198.592 52.7998 202.407 44.0078 202.407 44.0078H213.019C213.019 49.3137 210.238 55.0813 205.909 58.9653C206.513 59.0183 207.097 58.7584 207.713 58.7584C219.418 58.7584 228.936 49.0484 228.936 37.3382C228.936 25.6279 219.418 16.0188 207.713 16.0188C196.008 16.0241 186.489 25.4422 186.489 37.1525Z" fill="#A5A815"/>
<path d="M22.0039 100.824C22.0039 112.529 31.5228 122.048 43.2278 122.048C43.8433 122.048 44.4269 122.695 45.0318 122.642C40.7021 118.753 37.9218 112.985 37.9218 107.679H48.5337C48.5337 107.679 52.3487 116.471 57.3416 117.331C61.6713 113.442 64.4516 107.472 64.4516 101.206C64.4516 89.5011 54.9327 79.7859 43.2278 79.7859C31.5228 79.7912 22.0039 89.1138 22.0039 100.824Z" fill="#FDFFBA"/>
<path d="M271.384 19.1758L281.137 15.9233L271.384 12.676V19.1758Z" fill="#EE8B26"/>
<path d="M215.794 84.906H210.244L213.019 91.8409L215.794 84.906Z" fill="#66CEDB"/>
<path d="M96.2874 203.187H69.7576C66.8234 203.187 64.4516 199.26 64.4516 196.331V169.802C64.4516 168.263 65.1202 166.804 66.2822 165.79C67.4442 164.787 68.9882 164.321 70.511 164.549L106.008 169.621L141.6 151.83L139.993 149.416L136.772 144.588L103.689 158.765C102.501 159.275 101.153 160.118 99.922 159.699L68.898 150.127H53.8397V187.269H43.2278V150.127H27.3099C18.5338 150.127 11.392 155.714 11.392 164.496V219.105H22.0039V171.351H32.6158V293.388H48.5337V222.861C48.5337 219.927 50.9055 219.105 53.8397 219.105H90.9815C93.9156 219.105 96.2874 219.927 96.2874 222.861V261.552H112.205V217.555C112.205 208.774 105.063 203.187 96.2874 203.187Z" fill="#A5A815"/>
<path d="M271.384 79.6001C271.384 82.529 269.013 86.4554 266.078 86.4554H227.223L217.948 108.873C217.141 110.889 215.194 111.823 213.019 111.823C210.849 111.823 208.901 111.086 208.089 109.069L198.815 86.4554H188.41L158.898 110.274L144.858 137.971L149.347 144.508L166.156 119.199C166.485 118.694 166.91 118.206 167.387 117.851L188.611 101.906C190.214 100.702 192.373 100.5 194.167 101.392C195.965 102.294 197.101 104.119 197.101 106.13V229.717H213.019V201.637V159.19C213.019 156.255 215.39 155.433 218.325 155.433H255.466C258.401 155.433 260.772 156.255 260.772 159.19V197.881H276.69V153.884C276.69 145.102 269.548 139.515 260.772 139.515H234.243C231.308 139.515 228.937 135.589 228.937 132.66V100.824C228.937 97.8898 231.308 97.0674 234.243 97.0674H266.078C274.854 97.0674 281.996 88.3762 281.996 79.6001V54.6196H271.384V79.6001Z" fill="#FDFFBA"/>
<path d="M207.713 68.9882C225.27 68.9882 239.549 54.7099 239.549 37.1524C239.549 19.595 225.27 5.31665 207.713 5.31665C190.155 5.31665 175.877 19.595 175.877 37.1524C175.877 54.7099 190.155 68.9882 207.713 68.9882ZM207.713 15.9233C219.418 15.9233 228.937 25.4422 228.937 37.1471C228.937 48.8521 219.418 58.371 207.713 58.371C207.092 58.371 206.514 59.0183 205.909 58.9653C210.238 55.0813 213.019 49.3137 213.019 44.0078H202.407C202.407 44.0078 198.592 52.7997 193.599 53.6593C189.269 49.7753 186.489 43.8061 186.489 37.5398C186.489 25.8348 196.008 15.9233 207.713 15.9233Z" fill="#191A29"/>
<path d="M43.2278 132.66C60.7852 132.66 75.0636 118.382 75.0636 100.824C75.0636 83.2666 60.7852 68.9883 43.2278 68.9883C25.6703 68.9883 11.392 83.2666 11.392 100.824C11.392 118.382 25.6703 132.66 43.2278 132.66ZM43.2278 79.6002C54.9327 79.6002 64.4516 89.1191 64.4516 100.824C64.4516 107.09 61.6713 113.447 57.3416 117.336C52.3487 116.471 48.5337 107.679 48.5337 107.679H37.9218C37.9218 112.985 40.7021 118.753 45.0318 122.637C44.4269 122.69 43.8433 122.43 43.2278 122.43C31.5228 122.43 22.0039 112.72 22.0039 101.01C22.0039 89.2995 31.5228 79.6002 43.2278 79.6002Z" fill="#191A29"/>
<path d="M299.591 10.8932L267.755 0.281266C266.126 -0.275861 264.359 0.00535524 262.974 1.00818C261.589 2.01101 260.772 3.60811 260.772 5.31132V47.7591V75.8435H186.489C185.247 75.8435 184.043 75.5039 183.088 76.2945L151.252 102.437C150.695 102.909 150.233 103.297 149.904 103.949L134.856 133.954L101.355 148.259L71.4343 139.043C70.8931 138.857 70.3253 139.515 69.7576 139.515H27.3099C12.6813 139.515 0.780029 149.867 0.780029 164.496V222.861C0.780029 225.79 3.1518 229.717 6.08599 229.717H22.0039V293.388H0.780029V304H27.3099H53.8397H75.0636C77.9977 304 80.3695 300.074 80.3695 297.145V272.164H90.9815H117.511H154.653C157.587 272.164 159.959 268.238 159.959 265.309V240.328H191.795H218.325C221.259 240.328 223.631 236.402 223.631 233.473V208.493H255.466H281.996H297.914V197.881H287.302V153.884C287.302 139.255 275.401 128.903 260.772 128.903H239.548V107.679H266.078C280.707 107.679 292.608 94.2234 292.608 79.6002V47.7644C292.608 44.8302 290.236 44.0077 287.302 44.0077H271.384V30.3608L299.591 20.9586C301.761 20.237 303.22 18.2101 303.22 15.9233C303.22 13.6364 301.761 11.6148 299.591 10.8932ZM215.794 84.9061L213.019 91.841L210.244 84.9008H215.794V84.9061ZM75.0636 261.552C72.1294 261.552 69.7576 262.375 69.7576 265.309V293.388H59.1457V229.717H85.6755V261.552H75.0636ZM96.2874 261.552V222.861C96.2874 219.927 93.9156 219.105 90.9815 219.105H53.8397C50.9055 219.105 48.5337 219.927 48.5337 222.861V293.388H32.6158V171.351H22.0039V219.105H11.392V164.496C11.392 155.714 18.5338 150.127 27.3099 150.127H43.2278V187.269H53.8397V150.127H68.898L99.9167 159.688C101.148 160.108 102.495 159.651 103.684 159.147L136.767 144.779L139.987 149.512L141.595 151.878L106.003 169.648L70.5057 164.565C68.9829 164.336 67.4389 164.798 66.2769 165.801C65.1202 166.804 64.4516 168.258 64.4516 169.802V196.331C64.4516 199.26 66.8234 203.187 69.7576 203.187H96.2874C105.063 203.187 112.205 208.774 112.205 217.555V261.552H96.2874ZM154.653 229.717C151.719 229.717 149.347 230.539 149.347 233.473V261.552H122.817V217.555C122.817 202.927 110.916 192.575 96.2874 192.575H75.0636V175.919L106.146 180.36C107.218 180.509 108.3 180.329 109.271 179.851L151.719 158.627C152.494 158.24 153.104 157.651 153.597 156.966C153.64 156.908 153.719 156.887 153.762 156.828L174.481 125.751L186.489 116.742V229.717H154.653ZM250.16 197.881H223.631V166.045H250.16V197.881ZM281.996 79.6002C281.996 88.3762 274.854 97.0674 266.078 97.0674H234.243C231.308 97.0674 228.937 97.8898 228.937 100.824V132.66C228.937 135.589 231.308 139.515 234.243 139.515H260.772C269.548 139.515 276.69 145.102 276.69 153.884V197.881H260.772V159.19C260.772 156.255 258.401 155.433 255.466 155.433H218.325C215.39 155.433 213.019 156.255 213.019 159.19V201.637V229.717H197.101V106.13C197.101 104.119 195.965 102.283 194.167 101.381C192.373 100.49 190.214 100.675 188.611 101.885L167.387 117.803C166.905 118.159 166.485 118.599 166.156 119.103L149.347 144.317L144.858 137.578L158.898 110.269L188.41 86.4555H198.815L208.089 108.873C208.896 110.889 210.849 111.823 213.019 111.823C215.189 111.823 217.136 111.086 217.948 109.069L227.223 86.4555H266.078C269.013 86.4555 271.384 82.529 271.384 79.6002V54.6197H281.996V79.6002ZM271.384 19.1758V12.676L281.137 15.9233L271.384 19.1758Z" fill="#191A29"/>
</g>
<defs>
<clipPath id="clip0_1124_233">
<rect width="304" height="304" fill="white"/>
</clipPath>
</defs>
</svg>
