<svg width="43" height="52" viewBox="0 0 43 52" fill="none" xmlns="http://www.w3.org/2000/svg">
<path d="M13.1429 2V7.33333M21.5 2V7.33333M29.8571 2V7.33333M24.2857 18H13.1429M29.8571 28.6667H13.1429M10.9143 50H32.0857C35.206 50 36.7663 50 37.958 49.4187C39.0063 48.9075 39.8587 48.0915 40.3927 47.088C41 45.9472 41 44.4536 41 41.4667V13.2C41 10.2131 41 8.71957 40.3927 7.57872C39.8587 6.57517 39.0063 5.75928 37.958 5.24797C36.7663 4.66667 35.206 4.66667 32.0857 4.66667H10.9143C7.79401 4.66667 6.23384 4.66667 5.04206 5.24797C3.99371 5.75928 3.14139 6.57517 2.60726 7.57872C2 8.71957 2 10.213 2 13.2V41.4667C2 44.4536 2 45.9472 2.60726 47.088C3.14139 48.0915 3.99371 48.9075 5.04206 49.4187C6.23384 50 7.79398 50 10.9143 50Z" stroke="black" stroke-width="4" stroke-linecap="round" stroke-linejoin="round"/>
</svg>
