<svg width="131" height="131" viewBox="0 0 131 131" fill="none" xmlns="http://www.w3.org/2000/svg">
<path d="M52.2094 54.7296C49.1186 53.8289 46.1669 53.0614 43.3541 52.4268C42.1949 48.758 41.6098 44.9321 41.6194 41.0846C41.6194 24.2976 52.409 10.6885 65.7188 10.6885C79.0286 10.6885 89.808 24.2848 89.808 41.0743C89.8158 44.7414 89.2848 48.3897 88.2319 51.9023C84.7317 52.6358 81.003 53.5782 77.0457 54.7296C71.4168 56.3722 66.8651 57.9994 64.6212 58.8361C62.3901 57.9994 57.8383 56.3722 52.2094 54.7296ZM19.4722 76.4622C16.6808 76.4622 13.952 77.29 11.6311 78.8409C9.31012 80.3918 7.50119 82.5962 6.43307 85.1752C5.36495 87.7542 5.08562 90.592 5.63038 93.3297C6.17515 96.0675 7.51956 98.5822 9.49358 100.556C11.4676 102.53 13.9826 103.874 16.7204 104.418C19.4583 104.962 22.2961 104.682 24.8749 103.614C27.4537 102.545 29.6577 100.736 31.2082 98.4145C32.7586 96.0932 33.5859 93.3643 33.5854 90.5729C33.5847 86.8303 32.0975 83.2412 29.4509 80.595C26.8042 77.9488 23.2148 76.4622 19.4722 76.4622ZM111.528 76.4622C108.736 76.4622 106.008 77.29 103.687 78.8409C101.366 80.3918 99.5568 82.5962 98.4887 85.1752C97.4206 87.7542 97.1413 90.592 97.686 93.3297C98.2308 96.0675 99.5752 98.5822 101.549 100.556C103.523 102.53 106.038 103.874 108.776 104.418C111.514 104.962 114.352 104.682 116.931 103.614C119.509 102.545 121.713 100.736 123.264 98.4145C124.814 96.0932 125.642 93.3643 125.641 90.5729C125.64 86.8307 124.154 83.242 121.507 80.5959C118.861 77.9498 115.273 76.4629 111.53 76.4622H111.528ZM93.3235 90.5729C93.3274 87.0527 94.3505 83.609 96.2693 80.6578C98.188 77.7065 100.92 75.374 104.136 73.942V54.1001C87.6357 54.1001 64.6212 63.219 64.6212 63.219C64.6212 63.219 41.6066 54.1001 25.1062 54.1001V73.2691C28.7585 74.4592 31.9407 76.7742 34.1973 79.8828C36.4539 82.9914 37.6691 86.7342 37.6691 90.5755C37.6691 94.4167 36.4539 98.1595 34.1973 101.268C31.9407 104.377 28.7585 106.692 25.1062 107.882V109.673C41.6066 109.673 64.6212 120.311 64.6212 120.311C64.6212 120.311 87.646 109.68 104.136 109.68V107.204C100.92 105.772 98.188 103.439 96.2693 100.488C94.3505 97.5368 93.3274 94.093 93.3235 90.5729Z" fill="#A5A815"/>
</svg>
