<svg width="131" height="131" viewBox="0 0 131 131" fill="none" xmlns="http://www.w3.org/2000/svg">
<path d="M65.4987 0C29.381 0 0 29.3833 0 65.5C0 101.617 29.381 131 65.4987 131C101.616 131 131 101.617 131 65.5C131 29.3833 101.616 0 65.4987 0ZM65.4987 122.41C34.1189 122.41 8.59032 96.8797 8.59032 65.5C8.59032 34.1199 34.1186 8.59065 65.4987 8.59065C96.8788 8.59065 122.409 34.1203 122.409 65.5C122.409 96.8797 96.8784 122.41 65.4987 122.41Z" fill="#A5A815"/>
<path d="M89.213 44.0572L55.4376 77.831L41.7845 64.1808C40.1067 62.505 37.3888 62.504 35.711 64.1818C34.0325 65.8602 34.0325 68.5784 35.711 70.2562L52.4014 86.944C53.2401 87.7817 54.3388 88.2009 55.4376 88.2009C56.5364 88.2009 57.6381 87.7817 58.4765 86.9427C58.4791 86.9391 58.4811 86.9355 58.4853 86.9312L95.2862 50.1307C96.9646 48.4539 96.9646 45.7337 95.2862 44.0569C93.6087 42.3791 90.8888 42.3791 89.213 44.0572Z" fill="#FDFFBA"/>
</svg>
