<svg width="48" height="48" viewBox="0 0 48 48" fill="none" xmlns="http://www.w3.org/2000/svg">
<path fill-rule="evenodd" clip-rule="evenodd" d="M31.748 6C30.8598 9.45046 27.7276 12 24 12C20.2724 12 17.1401 9.45046 16.252 6H14V8.36364C14 11.2646 12.3824 13.7877 10 15.0803V40H38V15.0803C35.6176 13.7877 34 11.2646 34 8.36364V6H31.748ZM11.6667 2C10.7462 2 10 2.7462 10 3.66666V8.36364C10 10.3719 8.37194 12 6.36364 12C6.1628 12 6 12.1628 6 12.3636V40C6 42.2092 7.79086 44 10 44H38C40.2092 44 42 42.2092 42 40V12.3636C42 12.1628 41.8372 12 41.6364 12C39.628 12 38 10.3719 38 8.36364V3.66666C38 2.7462 37.2538 2 36.3334 2H29C28.4478 2 28 2.44772 28 3V4C28 6.20914 26.2092 8 24 8C21.7908 8 20 6.20914 20 4V3C20 2.44772 19.5523 2 19 2H11.6667Z" fill="black"/>
</svg>
