<svg width="138" height="102" viewBox="0 0 138 102" fill="none" xmlns="http://www.w3.org/2000/svg">
<path d="M25.9397 14.9796C25.9397 7.28177 32.1239 1.07373 39.9031 1.07373C47.6327 1.07373 53.8664 7.28177 53.8664 14.9796C53.8168 22.7273 47.5831 28.8854 39.9031 28.8854C32.1735 28.8854 25.9397 22.6773 25.9397 14.9796ZM102.961 74.6211H77.625V52.0737C77.625 41.0894 67.9861 32.2106 57.1407 32.2106H23.1797C11.2729 32.2106 1.07278 42.4857 1.07817 52.6106V93.9474C1.06415 98.5283 4.31308 100.92 7.54692 100.926C10.7888 100.932 14.0157 98.5401 14.0157 93.9474V53.6843H18.3282V100.926H60.375V53.6843H64.6875L64.7312 80.725C64.7026 85.4111 67.6109 87.4065 70.6172 87.5053H102.961C111.782 87.5053 111.782 74.6211 102.961 74.6211ZM136.922 44.406L126.934 34.5265C126.178 33.7739 126.178 32.5531 126.934 31.8004C127.459 31.2775 128.387 31.2239 128.879 31.3178C130.875 31.6995 132.524 31.4568 133.727 30.2586C135.794 28.2004 134.919 23.9539 132.31 21.1908C129.21 17.9075 125.179 17.5612 123.112 19.62C121.913 20.8145 121.69 22.57 122.044 24.4296C122.138 24.9213 122.076 25.849 121.551 26.3719C120.795 27.1245 119.569 27.1245 118.814 26.3719L109.591 17.187L100.131 26.6076C99.3751 27.3602 99.3751 28.581 100.131 29.3336C100.652 29.8522 101.7 29.8839 102.132 29.7293C102.135 29.7288 104.862 28.8354 106.917 30.8819C108.984 32.9401 108.477 36.7834 105.784 39.4649C103.09 42.1464 99.2317 42.6522 97.165 40.5939C95.8728 39.3071 95.8804 37.4861 96.1639 35.3377C96.2346 34.8019 96.0243 34.2474 95.6103 33.8356C94.8546 33.0829 93.6287 33.0829 92.873 33.8356L84.6329 42.0423L111.964 69.2613L120.205 61.0551C120.96 60.3024 120.96 59.0817 120.205 58.329C119.669 57.7959 118.927 57.7084 118.22 57.8523C116.416 58.2195 114.611 57.9693 113.418 56.7813C111.351 54.723 111.859 50.8798 114.552 48.1983C117.245 45.5167 121.104 45.011 123.17 47.0693C125.243 49.1334 124.214 52.0281 124.214 52.0281C124.067 52.6551 124.235 53.3391 124.725 53.8276C125.481 54.5802 126.82 54.475 127.685 53.6059L136.922 44.406Z" fill="#FDFFBA"/>
</svg>
