<svg width="131" height="131" viewBox="0 0 131 131" fill="none" xmlns="http://www.w3.org/2000/svg">
<path d="M27.2917 120.083H103.708C109.729 120.083 114.625 115.187 114.625 109.167V27.2917C114.625 21.2712 109.729 16.3751 103.708 16.3751H92.7917C92.7917 14.9274 92.2166 13.5391 91.193 12.5155C90.1693 11.4918 88.781 10.9167 87.3333 10.9167H43.6667C42.219 10.9167 40.8307 11.4918 39.807 12.5155C38.7834 13.5391 38.2083 14.9274 38.2083 16.3751H27.2917C21.2711 16.3751 16.375 21.2712 16.375 27.2917V109.167C16.375 115.187 21.2711 120.083 27.2917 120.083ZM27.2917 27.2917H38.2083V38.2084H92.7917V27.2917H103.708V109.167H27.2917V27.2917Z" fill="#A5A815"/>
<path d="M60.0416 74.1568L50.2548 64.37L42.5367 72.0881L60.0416 89.593L88.4632 61.1715L80.7451 53.4534L60.0416 74.1568Z" fill="#FDFFBA"/>
</svg>
