<svg width="48" height="48" viewBox="0 0 48 48" fill="none" xmlns="http://www.w3.org/2000/svg">
<g clip-path="url(#clip0_1302_174)">
<path d="M45.2 12.9L37.1 4H10.9L2.79997 12.9C2.26344 13.4738 1.97336 14.2351 1.99206 15.0204C2.01076 15.8057 2.33674 16.5524 2.89997 17.1L10.4 24.6V44H37.7V24.6L45.2 17.1C45.7497 16.5392 46.0575 15.7853 46.0575 15C46.0575 14.2147 45.7497 13.4608 45.2 12.9ZM36.8 19.7L33.7 16.8V40H14.3V16.8L11.2 19.7L6.39997 14.9L12.7 8H20.1C20.3014 8.88373 20.797 9.67286 21.5055 10.2381C22.2141 10.8033 23.0936 11.1112 24 11.1112C24.9064 11.1112 25.7859 10.8033 26.4944 10.2381C27.203 9.67286 27.6986 8.88373 27.9 8H35.3L41.6 14.9L36.8 19.7Z" fill="black"/>
</g>
<defs>
<clipPath id="clip0_1302_174">
<rect width="48" height="48" fill="white"/>
</clipPath>
</defs>
</svg>
