<svg width="40" height="40" viewBox="0 0 40 40" fill="none" xmlns="http://www.w3.org/2000/svg">
    <path d="M19.9959 21.363C25.8641 21.363 30.7203 16.6864 30.7203 10.7284C30.7203 4.77044 25.8641 0.0040741 19.9959 0.0040741C14.1278 0.0040741 9.27161 4.68067 9.27161 10.6386C9.27161 16.5966 14.1278 21.363 19.9959 21.363ZM19.9959 3.32584C24.0767 3.32584 27.3985 6.64761 27.3985 10.6468C27.3985 14.646 24.0767 17.9596 19.9959 17.9596C15.9151 17.9596 12.5934 14.6378 12.5934 10.6386C12.5934 6.63945 15.9151 3.32584 19.9959 3.32584Z" fill="white"/>
    <path d="M27.2271 22.3832C26.5497 22.2118 25.8641 22.3832 25.4397 22.8974L19.9959 29.1084L14.5521 22.8974C14.1277 22.3832 13.3605 22.22 12.7647 22.3832C5.01938 24.9378 0 31.2304 0 38.2902C0 39.2287 0.76719 39.9959 1.70577 39.9959H38.2942C39.2328 39.9959 40 39.2287 40 38.2902C39.9918 31.2304 34.9725 24.9378 27.2271 22.3832ZM3.485 36.6742C4.17058 31.9976 7.57396 27.9984 12.8464 25.958L18.8043 32.7648C19.4001 33.5319 20.6733 33.5319 21.2691 32.7648L27.2271 25.958C32.4179 27.9984 35.911 32.0792 36.5885 36.6742H3.485V36.6742Z" fill="white"/>
</svg>
