<svg width="20" height="21" viewBox="0 0 20 21" fill="none" xmlns="http://www.w3.org/2000/svg">
<path d="M11.0001 9.15821H5.00012C4.73491 9.15821 4.48055 9.26542 4.29302 9.45625C4.10548 9.64709 4.00012 9.90591 4.00012 10.1758C4.00012 10.4457 4.10548 10.7045 4.29302 10.8953C4.48055 11.0862 4.73491 11.1934 5.00012 11.1934H11.0001C11.2653 11.1934 11.5197 11.0862 11.7072 10.8953C11.8948 10.7045 12.0001 10.4457 12.0001 10.1758C12.0001 9.90591 11.8948 9.64709 11.7072 9.45625C11.5197 9.26542 11.2653 9.15821 11.0001 9.15821ZM15.0001 5.0879H5.00012C4.73491 5.0879 4.48055 5.19511 4.29302 5.38594C4.10548 5.57677 4.00012 5.8356 4.00012 6.10548C4.00012 6.37535 4.10548 6.63418 4.29302 6.82501C4.48055 7.01585 4.73491 7.12305 5.00012 7.12305H15.0001C15.2653 7.12305 15.5197 7.01585 15.7072 6.82501C15.8948 6.63418 16.0001 6.37535 16.0001 6.10548C16.0001 5.8356 15.8948 5.57677 15.7072 5.38594C15.5197 5.19511 15.2653 5.0879 15.0001 5.0879ZM17.0001 0H3.00012C2.20447 0 1.44141 0.321627 0.878802 0.894126C0.316193 1.46663 0.00012207 2.2431 0.00012207 3.05274V13.2285C0.00012207 14.0382 0.316193 14.8146 0.878802 15.3871C1.44141 15.9596 2.20447 16.2813 3.00012 16.2813H14.5901L18.2901 20.0565C18.3836 20.1508 18.4944 20.2254 18.6162 20.2761C18.7381 20.3267 18.8685 20.3524 19.0001 20.3516C19.1313 20.355 19.2614 20.3271 19.3801 20.2702C19.5627 20.1938 19.7191 20.0642 19.8294 19.8976C19.9397 19.731 19.9991 19.5349 20.0001 19.334V3.05274C20.0001 2.2431 19.6841 1.46663 19.1214 0.894126C18.5588 0.321627 17.7958 0 17.0001 0ZM18.0001 16.8816L15.7101 14.5412C15.6167 14.4469 15.5059 14.3723 15.384 14.3216C15.2622 14.271 15.1317 14.2453 15.0001 14.2461H3.00012C2.73491 14.2461 2.48055 14.1389 2.29302 13.9481C2.10548 13.7572 2.00012 13.4984 2.00012 13.2285V3.05274C2.00012 2.78286 2.10548 2.52403 2.29302 2.3332C2.48055 2.14237 2.73491 2.03516 3.00012 2.03516H17.0001C17.2653 2.03516 17.5197 2.14237 17.7072 2.3332C17.8948 2.52403 18.0001 2.78286 18.0001 3.05274V16.8816Z" fill="#A5A815"/>
</svg>
