<svg width="40" height="40" viewBox="0 0 40 40" fill="none" xmlns="http://www.w3.org/2000/svg">
    <path d="M4.44444 12V36H35.5556V12H4.44444ZM4.44444 8H35.5556V4H4.44444V8ZM37.7778 40H2.22222C1.63285 40 1.06762 39.7893 0.650874 39.4142C0.234126 39.0391 0 38.5304 0 38V2C0 1.46957 0.234126 0.960859 0.650874 0.585786C1.06762 0.210714 1.63285 0 2.22222 0H37.7778C38.3671 0 38.9324 0.210714 39.3491 0.585786C39.7659 0.960859 40 1.46957 40 2V38C40 38.5304 39.7659 39.0391 39.3491 39.4142C38.9324 39.7893 38.3671 40 37.7778 40ZM8.88889 16H17.7778V24H8.88889V16ZM8.88889 28H31.1111V32H8.88889V28ZM22.2222 18H31.1111V22H22.2222V18Z" fill="white"/>
</svg>
