<svg width="40" height="40" viewBox="0 0 40 40" fill="none" xmlns="http://www.w3.org/2000/svg">
    <path d="M39.1406 9.3125C39.1406 8.84375 38.9375 8.42969 38.625 8.13281L32.8984 1.42188C32.5938 1.07031 32.1562 0.859375 31.6875 0.859375H8.29688C7.82812 0.859375 7.39062 1.0625 7.08594 1.42188L1.24219 8.28125C0.992187 8.57812 0.859375 8.94531 0.859375 9.3125C0.859375 9.3125 0.859375 9.3125 0.859375 9.32031V37.5391C0.859375 38.4219 1.57031 39.1328 2.45312 39.1328H37.5312C38.4141 39.1328 39.125 38.4219 39.125 37.5391C39.125 37.5391 39.1406 9.38281 39.1406 9.3125ZM35.9375 12.2031C35.9375 13.6328 34.7734 14.7969 33.3438 14.7969H32.9453C31.5156 14.7969 30.3516 13.6328 30.3516 12.2031V10.9062H35.9375V12.2031ZM27.1641 12.2031C27.1641 13.6328 26 14.7969 24.5703 14.7969H24.1719C22.7422 14.7969 21.5781 13.6328 21.5781 12.2031V10.9062H27.1562V12.2031H27.1641ZM18.4062 12.2031C18.4062 13.6328 17.2422 14.7969 15.8125 14.7969H15.4141C13.9844 14.7969 12.8203 13.6328 12.8203 12.2031V10.9062H18.3984V12.2031H18.4062ZM9.64062 12.2031C9.64062 13.6328 8.47656 14.7969 7.04688 14.7969H6.65625C5.22656 14.7969 4.0625 13.6328 4.0625 12.2031V10.9062H9.64062V12.2031ZM9.05469 4.05469H30.9688L34.0938 7.71875H5.92969L9.05469 4.05469ZM17.7188 35.9453V27.6875H22.3047V35.9453H17.7188ZM25.4922 35.9453V26.0938C25.4922 25.2109 24.7812 24.5 23.8984 24.5H16.125C15.2422 24.5 14.5312 25.2109 14.5312 26.0938V35.9453H4.0625V17.3672C4.84375 17.7578 5.71875 17.9844 6.65625 17.9844H7.05469C8.70313 17.9844 10.1875 17.2891 11.2422 16.1875C12.2969 17.2969 13.7812 17.9844 15.4297 17.9844H15.8281C17.4766 17.9844 18.9609 17.2891 20.0156 16.1875C21.0703 17.2969 22.5547 17.9844 24.2031 17.9844H24.6016C26.25 17.9844 27.7344 17.2891 28.7891 16.1875C29.8438 17.2969 31.3281 17.9844 32.9766 17.9844H33.375C34.3047 17.9844 35.1875 17.7578 35.9688 17.3672V35.9453H25.4922Z" fill="white"/>
</svg>
