<svg width="22" height="18" viewBox="0 0 22 18" fill="none" xmlns="http://www.w3.org/2000/svg">
<g clip-path="url(#clip0_326_115)">
<path fill-rule="evenodd" clip-rule="evenodd" d="M1.22222 18H6.11111C6.78333 18 7.33333 17.325 7.33333 16.5C7.33333 15.675 6.78333 15 6.11111 15H1.22222C0.55 15 0 15.675 0 16.5C0 17.325 0.55 18 1.22222 18ZM0 1.5C0 2.325 0.55 3 1.22222 3H20.7778C21.45 3 22 2.325 22 1.5C22 0.675 21.45 0 20.7778 0H1.22222C0.55 0 0 0.675 0 1.5ZM1.22222 10.5H13.4444C14.1167 10.5 14.6667 9.825 14.6667 9C14.6667 8.175 14.1167 7.5 13.4444 7.5H1.22222C0.55 7.5 0 8.175 0 9C0 9.825 0.55 10.5 1.22222 10.5Z" fill="#A5A815"/>
</g>
<defs>
<clipPath id="clip0_326_115">
<rect width="22" height="18" fill="white"/>
</clipPath>
</defs>
</svg>
