<svg width="18" height="18" viewBox="0 0 18 18" fill="none" xmlns="http://www.w3.org/2000/svg">
<path fill-rule="evenodd" clip-rule="evenodd" d="M5 2.08333C5 0.93274 5.93274 0 7.08333 0H10.8333C11.9839 0 12.9167 0.93274 12.9167 2.08333V2.5H17.0833C17.5436 2.5 17.9167 2.8731 17.9167 3.33333C17.9167 3.79357 17.5436 4.16667 17.0833 4.16667H16.0417V14.5833C16.0417 16.4243 14.5493 17.9167 12.7083 17.9167H5.20833C3.36738 17.9167 1.875 16.4243 1.875 14.5833V4.16667H0.833333C0.373096 4.16667 0 3.79357 0 3.33333C0 2.8731 0.373096 2.5 0.833333 2.5H5V2.08333ZM6.66667 2.5H11.25V2.08333C11.25 1.85321 11.0635 1.66667 10.8333 1.66667H7.08333C6.85322 1.66667 6.66667 1.85321 6.66667 2.08333V2.5ZM3.54167 4.16667V14.5833C3.54167 15.5038 4.28786 16.25 5.20833 16.25H12.7083C13.6288 16.25 14.375 15.5038 14.375 14.5833V4.16667H3.54167ZM8.95833 5.625C9.41857 5.625 9.79167 5.9981 9.79167 6.45833L9.79167 13.9583C9.79167 14.4186 9.41857 14.7917 8.95833 14.7917C8.4981 14.7917 8.125 14.4186 8.125 13.9583L8.125 6.45833C8.125 5.9981 8.4981 5.625 8.95833 5.625Z" fill="#A84F43"/>
</svg>
